<?xml version="1.0" encoding="iso-8859-1"?>
<!-- Generator: Adobe Illustrator 19.0.0, SVG Export Plug-In . SVG Version: 6.00 Build 0)  -->
<svg version="1.1" id="Layer_1" xmlns="http://www.w3.org/2000/svg" xmlns:xlink="http://www.w3.org/1999/xlink" x="0px" y="0px"
	 viewBox="0 0 480 480" style="enable-background:new 0 0 480 480;" xml:space="preserve">
<g>
	<g>
		<g>
			<path d="M451.353,137.412c-12.598-25.041-29.832-47.899-50.424-67.084h56.881c5.523,0,10-4.477,10-10V10c0-5.523-4.477-10-10-10
				H30.05c-5.523,0-10,4.477-10,10v50.327c0,5.523,4.477,10,10,10h53.901c-51.359,45.784-80.41,107.826-80.41,173.214
				c0,63.15,24.595,122.526,69.254,167.19C117.458,455.4,176.84,480,240,480s122.541-24.6,167.205-69.269
				c44.659-44.664,69.254-104.04,69.254-167.19C476.459,206.233,468.012,170.526,451.353,137.412z M40.05,50.327V20h407.76v30.327
				H40.05z M240,460c-119.356,0-216.459-97.103-216.459-216.459c0-64.984,31.648-126.505,86.955-169.286l264.134-0.241
				c52.047,41.389,81.829,102.983,81.829,169.527C456.459,362.897,359.355,460,240,460z"/>
			<path d="M376.814,290.694l10.533-46.335c0.675-2.966-0.038-6.078-1.936-8.455c-1.897-2.377-4.773-3.762-7.815-3.762
				c-19.334,0-37.91,5.737-52.308,16.153c-10.306,7.456-17.516,16.629-21.215,26.693c-7.64-11.839-21.081-23.296-29.115-29.561
				c-3.399-10.295-0.979-30.865,1.537-42.168c1.08-4.825-1.529-9.715-6.139-11.505c-34.426-13.368-73.849,17.124-81.332,23.307
				c-22.221,4.635-42.195,19.253-50.7,26.194c-7.864,6.418-33.522,28.97-33.522,49.702c0,20.698,25.657,43.255,33.521,49.675
				c8.497,6.937,28.437,21.537,50.621,26.194c7.096,6.256,37.074,32.02,57.337,39.067c2.321,0.808,4.418,1.13,6.289,1.13
				c5.467,0,9-2.757,10.504-4.239c6.521-6.432,7.341-18.211,2.739-39.388c-1.414-6.507-3.095-12.682-4.427-17.248
				c3.873-2.532,7.147-4.853,9.604-6.668c6.603-4.878,24.029-18.506,33.128-32.644c3.713,10,10.905,19.12,21.169,26.546
				c14.407,10.424,32.983,16.165,52.308,16.165c0.004,0,0.012,0,0.02,0c5.523,0,10-4.477,10-10c0-0.989-0.143-1.945-0.411-2.848
				L376.814,290.694z M255.188,208.566c-0.925,5.98-1.84,13.984-1.868,22.171c-8.927-5.249-19.689-10.605-30.784-13.898
				C232.671,211.63,244.497,207.561,255.188,208.566z M154.489,327.916c-1.177-0.901-2.35-1.825-3.516-2.777
				c-18.051-14.737-26.17-28.861-26.17-34.183c0-6.229,9.171-20.336,26.168-34.207c1.632-1.331,3.278-2.596,4.93-3.827
				c7.048,3.644,26.945,15.33,28.593,31.786C185.778,297.534,175.423,312.407,154.489,327.916z M219.323,365.948
				c8.403-2.168,16.694-5.624,24.24-9.448c3.123,11.543,5.125,22.598,5.207,28.819C240.09,381.258,228.959,373.417,219.323,365.948z
				 M258.187,324.068c-4.527,3.302-9.096,6.308-13.621,9.018c-0.002,0.001-0.003,0.003-0.005,0.003
				c-15.952,9.553-31.33,15.204-42.184,15.204c-8.728,0-19.209-3.184-30.057-8.895c23.183-18.742,33.967-37.77,32.073-56.684
				c-1.977-19.743-17.431-33.712-29.273-41.646c9.842-4.807,19.28-7.459,27.257-7.459c13.944,0,35.336,9.283,55.829,24.227
				c0.692,0.505,1.371,1.007,2.039,1.508c0.198,0.169,0.41,0.317,0.62,0.47c19.549,14.768,28.458,27.365,28.962,31.138
				C289.294,294.895,279.594,308.458,258.187,324.068z M321.209,290.866c0-17.635,19.254-33.418,43.609-37.628l-8.01,35.232
				c-0.331,1.455-0.332,2.965-0.003,4.42l8.033,35.566C340.475,324.255,321.209,308.486,321.209,290.866z"/>
			<path d="M150.26,271.432c-7.648,0-13.871,6.212-13.871,13.849c0,2.069,0.466,4.027,1.28,5.793
				c1.149,3.009,3.383,5.55,6.703,6.768c1.79,0.846,3.781,1.332,5.888,1.332c7.662,0.001,13.894-6.232,13.894-13.893
				C164.154,277.645,157.922,271.432,150.26,271.432z"/>
			<path d="M332.27,205.722c10.134,0,18.378-8.244,18.378-18.378c0-10.137-8.244-18.385-18.378-18.385
				c-10.134,0-18.378,8.248-18.378,18.385C313.892,197.478,322.136,205.722,332.27,205.722z"/>
			<path d="M95.416,192.233c0-5.523-4.477-10-10-10h-0.01c-5.523,0-9.995,4.477-9.995,10c0,5.523,4.482,10,10.005,10
				S95.416,197.756,95.416,192.233z"/>
			<path d="M100.031,327.899c-8.982,0-16.289,7.307-16.289,16.289s7.307,16.289,16.289,16.289c8.986,0,16.296-7.307,16.296-16.289
				C116.327,335.207,109.017,327.899,100.031,327.899z"/>
		</g>
	</g>
</g>
<g>
</g>
<g>
</g>
<g>
</g>
<g>
</g>
<g>
</g>
<g>
</g>
<g>
</g>
<g>
</g>
<g>
</g>
<g>
</g>
<g>
</g>
<g>
</g>
<g>
</g>
<g>
</g>
<g>
</g>
</svg>
